<svg xmlns="http://www.w3.org/2000/svg" width="1024" height="1024" viewBox="0 0 1024 1024">
  <rect width="1024" height="1024" fill="#F8F6EF"/>
  <g transform="translate(152 152) scale(30)" fill="#C69A35" stroke="#C69A35" stroke-width="1.5" stroke-linecap="round" stroke-linejoin="round">
    <path d="M11.562 3.266a.5.5 0 0 1 .876 0L15.39 8.87a1 1 0 0 0 1.516.294L21.183 5.5a.5.5 0 0 1 .798.519l-2.834 10.246a1 1 0 0 1-.964.734H5.817a1 1 0 0 1-.964-.734L2.02 6.02a.5.5 0 0 1 .798-.519l4.276 3.664a1 1 0 0 0 1.516-.294z"/>
    <line x1="5" y1="21" x2="19" y2="21" stroke-width="2"/>
  </g>
</svg>
